<svg xmlns="http://www.w3.org/2000/svg" xmlns:xlink="http://www.w3.org/1999/xlink" width="150" zoomAndPan="magnify" viewBox="0 0 112.5 44.999999" height="60" preserveAspectRatio="xMidYMid meet" version="1.0"><defs><g/></defs><g fill="#4680ff" fill-opacity="1"><g transform="translate(14.729417, 31.592251)"><g><path d="M 2 -27.515625 L 10.53125 -27.515625 C 13.113281 -27.515625 15.171875 -26.960938 16.703125 -25.859375 C 18.234375 -24.753906 19 -22.96875 19 -20.5 C 19 -17.75 17.859375 -15.785156 15.578125 -14.609375 C 19.484375 -13.921875 21.4375 -11.609375 21.4375 -7.671875 C 21.4375 -5.359375 20.632812 -3.5 19.03125 -2.09375 C 17.4375 -0.695312 15.238281 0 12.4375 0 L 2 0 Z M 8.265625 -16.734375 L 8.765625 -16.734375 C 10.171875 -16.734375 11.21875 -16.976562 11.90625 -17.46875 C 12.59375 -17.957031 12.9375 -18.757812 12.9375 -19.875 C 12.9375 -21.738281 11.546875 -22.671875 8.765625 -22.671875 L 8.265625 -22.671875 Z M 8.265625 -4.828125 L 10.234375 -4.828125 C 13.304688 -4.828125 14.84375 -5.851562 14.84375 -7.90625 C 14.84375 -9.125 14.457031 -10 13.6875 -10.53125 C 12.914062 -11.070312 11.765625 -11.34375 10.234375 -11.34375 L 8.265625 -11.34375 Z M 8.265625 -4.828125 "/></g></g></g><g fill="#4680ff" fill-opacity="1"><g transform="translate(36.93957, 31.592251)"><g><path d="M 3 -17.109375 L 3 -23.46875 L 8.90625 -23.46875 L 8.90625 -17.109375 L 12.5 -17.109375 L 12.5 -12.609375 L 8.90625 -12.609375 L 8.90625 -7.171875 C 8.90625 -5.585938 9.347656 -4.796875 10.234375 -4.796875 C 10.453125 -4.796875 10.679688 -4.835938 10.921875 -4.921875 C 11.171875 -5.015625 11.363281 -5.109375 11.5 -5.203125 L 11.703125 -5.328125 L 13.171875 -0.5625 C 11.898438 0.144531 10.457031 0.5 8.84375 0.5 C 7.726562 0.5 6.769531 0.304688 5.96875 -0.078125 C 5.164062 -0.472656 4.554688 -1 4.140625 -1.65625 C 3.734375 -2.3125 3.441406 -3 3.265625 -3.71875 C 3.085938 -4.4375 3 -5.207031 3 -6.03125 L 3 -12.609375 L 0.53125 -12.609375 L 0.53125 -17.109375 Z M 3 -17.109375 "/></g></g></g><g fill="#ff914d" fill-opacity="1"><g transform="translate(50.112857, 31.592251)"><g><path d="M 12.109375 -22.703125 C 11.210938 -22.703125 10.359375 -22.265625 9.546875 -21.390625 C 8.742188 -20.515625 8.148438 -19.640625 7.765625 -18.765625 L 7.203125 -17.46875 L 1.96875 -20 C 2.03125 -20.226562 2.140625 -20.519531 2.296875 -20.875 C 2.453125 -21.226562 2.816406 -21.863281 3.390625 -22.78125 C 3.972656 -23.707031 4.613281 -24.519531 5.3125 -25.21875 C 6.019531 -25.925781 6.976562 -26.566406 8.1875 -27.140625 C 9.394531 -27.722656 10.703125 -28.015625 12.109375 -28.015625 C 13.898438 -28.015625 15.46875 -27.785156 16.8125 -27.328125 C 18.164062 -26.867188 19.207031 -26.300781 19.9375 -25.625 C 20.675781 -24.945312 21.269531 -24.144531 21.71875 -23.21875 C 22.175781 -22.300781 22.46875 -21.460938 22.59375 -20.703125 C 22.71875 -19.953125 22.78125 -19.164062 22.78125 -18.34375 C 22.78125 -17.132812 22.441406 -15.867188 21.765625 -14.546875 C 21.097656 -13.234375 20.289062 -12.054688 19.34375 -11.015625 C 18.40625 -9.984375 17.457031 -9.039062 16.5 -8.1875 C 15.550781 -7.332031 14.742188 -6.671875 14.078125 -6.203125 L 13.078125 -5.5 L 23.28125 -5.5 L 23.28125 0 L 1.828125 0 L 1.828125 -1.5625 C 2.210938 -1.875 2.722656 -2.300781 3.359375 -2.84375 C 4.003906 -3.394531 5.140625 -4.4375 6.765625 -5.96875 C 8.390625 -7.5 9.820312 -8.9375 11.0625 -10.28125 C 12.3125 -11.625 13.445312 -13.0625 14.46875 -14.59375 C 15.488281 -16.132812 16 -17.382812 16 -18.34375 C 16 -18.71875 15.957031 -19.09375 15.875 -19.46875 C 15.800781 -19.851562 15.65625 -20.316406 15.4375 -20.859375 C 15.21875 -21.398438 14.816406 -21.84375 14.234375 -22.1875 C 13.660156 -22.53125 12.953125 -22.703125 12.109375 -22.703125 Z M 12.109375 -22.703125 "/></g></g></g><g fill="#4680ff" fill-opacity="1"><g transform="translate(75.225905, 31.592251)"><g><path d="M 2 0 L 2 -17.109375 L 7.90625 -17.109375 L 7.90625 -15.3125 L 7.96875 -15.3125 C 9.5 -16.84375 11.132812 -17.609375 12.875 -17.609375 C 13.71875 -17.609375 14.554688 -17.492188 15.390625 -17.265625 C 16.222656 -17.046875 17.019531 -16.703125 17.78125 -16.234375 C 18.550781 -15.765625 19.175781 -15.101562 19.65625 -14.25 C 20.132812 -13.394531 20.375 -12.398438 20.375 -11.265625 L 20.375 0 L 14.46875 0 L 14.46875 -9.671875 C 14.46875 -10.554688 14.179688 -11.332031 13.609375 -12 C 13.046875 -12.664062 12.3125 -13 11.40625 -13 C 10.507812 -13 9.703125 -12.65625 8.984375 -11.96875 C 8.265625 -11.28125 7.90625 -10.515625 7.90625 -9.671875 L 7.90625 0 Z M 2 0 "/></g></g></g></svg>