<?xml version="1.0" encoding="iso-8859-1"?>
<!-- Generator: Adobe Illustrator 19.0.0, SVG Export Plug-In . SVG Version: 6.00 Build 0)  -->
<svg version="1.1" id="Capa_1" xmlns="http://www.w3.org/2000/svg" xmlns:xlink="http://www.w3.org/1999/xlink" x="0px" y="0px"
	 viewBox="0 0 496.485 496.485" style="enable-background:new 0 0 496.485 496.485;" xml:space="preserve">
<circle style="fill:#2EA2DB;" cx="248.242" cy="248.242" r="248.242"/>
<path style="fill:#193651;" d="M54.303,232.727c-4.655,0-7.758-3.103-7.758-7.758v-77.576c0-4.655,3.103-7.758,7.758-7.758
	s7.758,3.103,7.758,7.758v77.576C62.061,228.848,58.182,232.727,54.303,232.727z"/>
<path style="fill:#E1E6E9;" d="M378.57,265.309v-89.988l0,0c-81.455-50.424-184.63-50.424-266.085,0v89.988H378.57z"/>
<path style="fill:#193651;" d="M378.57,273.067H112.485c-4.655,0-7.758-3.103-7.758-7.758v-89.988c0-2.327,1.552-5.43,3.879-6.206
	c41.115-25.6,88.436-39.564,137.309-39.564c48.097,0,95.418,13.188,136.533,38.788c2.327,1.552,3.879,3.879,3.879,6.982v89.988
	C386.327,269.964,382.448,273.067,378.57,273.067z M120.242,257.552h250.57v-77.576c-38.012-22.497-81.455-34.909-124.897-34.909
	c-44.218,0-87.661,11.636-124.897,34.909v77.576H120.242z"/>
<path style="fill:#E1E6E9;" d="M377.794,175.321L377.794,175.321v13.188l76.8-53.527L245.139,38.788L35.685,134.982l76.8,53.527
	v-13.188C193.164,124.897,296.339,124.121,377.794,175.321z"/>
<g>
	<path style="fill:#193651;" d="M378.57,196.267c-1.552,0-2.327,0-3.879-0.776c-2.327-1.552-3.879-3.879-3.879-6.982v-8.533
		c-38.012-22.497-81.455-34.909-124.897-34.909c-44.218,0-87.661,11.636-124.897,34.909v8.533c0,3.103-1.552,5.43-3.879,6.982
		c-2.327,1.552-5.43,0.776-7.758-0.776L31.03,141.188c-2.327-1.552-3.879-4.655-3.103-6.982c0-3.103,2.327-5.43,4.655-6.206
		l209.455-96.97c2.327-0.776,4.655-0.776,6.206,0l209.455,96.194c2.327,0.776,3.879,3.879,4.655,6.206
		c0,3.103-0.776,5.43-3.103,6.982l-76.8,53.527C381.673,195.491,380.121,196.267,378.57,196.267z M245.139,129.552
		c48.097,0,95.418,13.188,136.533,38.788c1.552,0.776,3.103,3.103,3.879,5.43l53.527-37.236L245.139,47.321L51.2,136.533
		l53.527,37.236c0.776-2.327,1.552-3.879,3.103-4.655C148.945,142.739,196.267,129.552,245.139,129.552z"/>
	<rect x="200.921" y="187.733" style="fill:#193651;" width="15.515" height="13.188"/>
	<rect x="237.382" y="187.733" style="fill:#193651;" width="15.515" height="13.188"/>
	<rect x="273.842" y="187.733" style="fill:#193651;" width="15.515" height="13.188"/>
</g>
<path style="fill:#F16051;" d="M240.485,328.145c0-34.909,27.927-62.836,62.836-62.836h19.394
	c-22.497-17.067-51.2-27.151-82.23-27.151s-59.733,10.085-82.23,27.152h19.394C211.782,265.309,240.485,293.236,240.485,328.145z"/>
<path style="fill:#193651;" d="M240.485,335.903c-4.655,0-7.758-3.103-7.758-7.758c0-30.255-24.824-55.079-55.079-55.079h-19.394
	c-3.103,0-6.206-2.327-6.982-5.43c-0.776-3.103,0-6.982,2.327-8.533c24.048-18.618,55.079-28.703,86.885-28.703
	c31.03,0,62.061,10.085,86.109,27.927c2.327,1.552,3.879,3.879,3.879,6.982c0,4.655-3.103,7.758-7.758,7.758l0,0h-19.394
	c-30.255,0-55.079,24.824-55.079,55.079C248.242,332.024,244.364,335.903,240.485,335.903z M185.406,258.327
	c24.048,2.327,44.218,17.067,55.079,38.012c10.861-20.17,31.03-34.909,55.079-38.012
	C261.43,242.812,218.764,242.812,185.406,258.327z"/>
<path style="fill:#FDBF5E;" d="M401.067,369.261L401.067,369.261c0,43.442-40.339,72.145-82.23,72.145
	c-22.497,0-43.442-8.533-59.733-21.721c0.776-4.655,1.552-8.533,1.552-13.188c0-18.618-6.982-37.236-20.945-51.2
	c-17.842,17.842-24.048,41.891-20.17,64.388c-16.291,13.188-36.461,21.721-59.733,21.721c-41.891,0-81.455-27.927-82.23-71.37l0,0
	c0-17.067,5.43-34.133,14.739-48.873c18.618,10.085,9.309,7.758,262.982,7.758c10.085,0,20.945-3.103,28.703-7.758
	C395.636,335.127,401.067,352.194,401.067,369.261z"/>
<path style="fill:#193651;" d="M319.612,449.164c-23.273,0-46.545-8.533-64.388-23.273c-2.327-1.552-3.103-4.655-2.327-7.758
	c0.776-3.879,0.776-7.758,0.776-11.636c0-14.739-4.655-27.927-13.188-39.564c-10.861,14.739-15.515,33.358-12.412,51.2
	c0.776,3.103-0.776,5.43-2.327,6.982c-17.842,15.515-41.115,23.273-64.388,23.273c-45.77,0-89.212-31.806-89.988-79.127
	c0-18.618,5.43-36.461,16.291-53.527c2.327-3.103,6.982-4.655,10.085-2.327c6.982,3.879,17.067,6.206,25.6,6.206h233.503
	c7.758,0,17.842-2.327,25.6-6.206c3.879-1.552,7.758-0.776,10.085,2.327c10.861,17.067,16.291,34.909,16.291,52.752
	C408.824,417.358,365.382,449.164,319.612,449.164z M268.412,416.582c14.739,10.861,32.582,17.067,51.2,17.067
	c37.236,0,73.697-24.824,74.473-63.612c0-13.188-3.879-26.376-10.085-38.788c-9.309,3.879-18.618,5.43-25.6,5.43
	c-256,0-242.812,1.552-259.879-5.43c-6.982,12.412-10.085,25.6-10.085,38.788c0,40.339,37.236,64.388,74.473,64.388
	c18.618,0,36.461-6.206,51.2-17.067c-3.103-24.824,5.43-48.873,22.497-66.715c3.103-3.103,7.758-3.103,10.861,0
	c14.739,14.739,23.273,34.909,23.273,56.63C269.188,409.6,269.188,412.703,268.412,416.582z"/>
<g>
	<path style="fill:#FFFFFF;" d="M119.467,350.642c0,21.721,17.842,40.339,40.339,40.339c21.721,0,40.339-17.842,40.339-40.339
		c0-8.533-2.327-16.291-6.982-22.497h-65.939C121.794,334.352,119.467,342.109,119.467,350.642z"/>
	<path style="fill:#FFFFFF;" d="M280.824,350.642c0,21.721,17.842,40.339,40.339,40.339c21.721,0,40.339-17.842,40.339-40.339
		c0-8.533-2.327-16.291-6.982-22.497h-65.939C283.152,334.352,280.824,342.109,280.824,350.642z"/>
</g>
<path style="fill:#F16051;" d="M240.485,355.297L240.485,355.297c-27.927,27.927-27.927,73.697,0,102.4l0,0
	C268.412,428.994,268.412,383.224,240.485,355.297z"/>
<path style="fill:#193651;" d="M240.485,464.679c-2.327,0-3.879-0.776-5.43-2.327c-14.739-14.739-23.273-34.909-23.273-56.63
	c0-21.721,8.533-41.115,23.273-56.63c3.103-3.103,7.758-3.103,10.861,0c31.03,31.03,31.03,82.23,0,113.261
	C244.364,463.903,242.036,464.679,240.485,464.679z M240.485,366.933c-8.533,10.861-13.188,24.824-13.188,39.564
	s4.655,27.927,13.188,39.564C258.327,422.012,258.327,390.206,240.485,366.933z"/>
<path style="fill:#FFFFFF;" d="M303.321,265.309c-34.909,0-62.836,27.927-62.836,62.836h116.364
	c34.909,0,62.836-27.927,62.836-62.836L303.321,265.309L303.321,265.309z"/>
<path style="fill:#193651;" d="M356.849,335.903H240.485c-4.655,0-7.758-3.103-7.758-7.758c0-38.788,31.806-70.594,70.594-70.594
	h117.139c4.655,0,7.758,3.103,7.758,7.758C427.442,304.097,396.412,335.903,356.849,335.903z M248.242,320.388h108.606
	c27.927,0,50.424-20.945,54.303-47.321H302.545C275.394,273.067,252.121,294.012,248.242,320.388z"/>
<path style="fill:#FFFFFF;" d="M177.648,265.309H60.509c0,34.909,27.927,62.836,62.836,62.836h117.139
	C240.485,293.236,211.782,265.309,177.648,265.309z"/>
<g>
	<path style="fill:#193651;" d="M240.485,335.903H123.345c-38.788,0-70.594-31.806-70.594-70.594c0-4.655,3.103-7.758,7.758-7.758
		h117.139c38.788,0,70.594,31.806,70.594,70.594C248.242,332.024,244.364,335.903,240.485,335.903z M69.042,273.067
		c3.879,26.376,27.152,47.321,54.303,47.321h108.606c-3.879-26.376-27.152-47.321-54.303-47.321H69.042z"/>
	<circle style="fill:#193651;" cx="321.164" cy="350.642" r="8.533"/>
	<circle style="fill:#193651;" cx="159.806" cy="350.642" r="8.533"/>
</g>
<g>
</g>
<g>
</g>
<g>
</g>
<g>
</g>
<g>
</g>
<g>
</g>
<g>
</g>
<g>
</g>
<g>
</g>
<g>
</g>
<g>
</g>
<g>
</g>
<g>
</g>
<g>
</g>
<g>
</g>
</svg>
